<?xml version="1.0" standalone="no"?>
<!DOCTYPE svg PUBLIC "-//W3C//DTD SVG 20010904//EN"
 "http://www.w3.org/TR/2001/REC-SVG-20010904/DTD/svg10.dtd">
<svg version="1.0" xmlns="http://www.w3.org/2000/svg"
 width="700.000000pt" height="700.000000pt" viewBox="0 0 700.000000 700.000000"
 preserveAspectRatio="xMidYMid meet">
<metadata>
Created by potrace 1.14, written by Peter Selinger 2001-2017
</metadata>
<g transform="translate(0.000000,700.000000) scale(0.100000,-0.100000)"
fill="#000000" stroke="none">
<path d="M614 6981 c-203 -57 -362 -199 -473 -419 -37 -73 -87 -219 -95 -277
-3 -22 -8 -51 -12 -65 -8 -33 -12 -471 -18 -2065 -3 -731 -8 -1966 -12 -2743
l-6 -1414 380 379 c210 208 1344 1339 2522 2513 1178 1174 2580 2572 3116
3105 536 534 974 972 974 976 0 6 -133 6 -1260 9 -404 0 -746 -1 -760 -4 -14
-2 -49 -7 -78 -10 -93 -11 -125 -17 -249 -46 -231 -55 -460 -156 -658 -289
-170 -115 -214 -154 -550 -483 -110 -108 -244 -239 -298 -291 -54 -52 -269
-262 -479 -468 -210 -206 -418 -410 -463 -454 -46 -44 -262 -256 -481 -471
-605 -594 -649 -636 -617 -594 9 12 256 441 390 679 14 24 131 228 261 455
129 226 243 425 252 441 9 17 135 237 280 490 145 253 335 586 423 740 87 154
164 286 169 293 6 7 8 15 5 19 -4 3 -500 7 -1104 8 -1013 3 -1103 2 -1159 -14z"/>
</g>
</svg>
