<svg xmlns="http://www.w3.org/2000/svg" viewBox="0 0 82.19 82.08"><defs><style>.cls-1{fill:#fff;}</style></defs><title>logo</title><g id="Layer_2" data-name="Layer 2"><g id="Layer_1-2" data-name="Layer 1"><path class="cls-1" d="M.29,49.57,11.91,38.2l19.41-19,12-11.71a24.76,24.76,0,0,1,8-5.25A25,25,0,0,1,60.8.45L82.35.53.16,82.33Z" transform="translate(-0.16 -0.25)"/><polygon class="cls-1" points="0 82.08 0.09 59.05 12.62 37.13 0 82.08"/><polyline class="cls-1" points="0 82.08 12.62 37.13 43.13 7.27"/><polygon class="cls-1" points="0.09 59.58 0.13 49.32 11.75 37.96 0.09 59.58"/><path class="cls-1" d="M.25,59.29,34,.34,9.07.25C4.33.23.46,5.21.44,11.37Z" transform="translate(-0.16 -0.25)"/><path class="cls-1" d="M34,.35h0A28.75,28.75,0,0,0,5.4,24.86L.25,59.29" transform="translate(-0.16 -0.25)"/></g></g></svg>